<?xml version="1.0" encoding="UTF-8"?>
<!DOCTYPE svg PUBLIC "-//W3C//DTD SVG 1.1//EN" "http://www.w3.org/Graphics/SVG/1.1/DTD/svg11.dtd">
<svg xmlns="http://www.w3.org/2000/svg" version="1.1" width="1320px" height="1000px" style="shape-rendering:geometricPrecision; text-rendering:geometricPrecision; image-rendering:optimizeQuality; fill-rule:evenodd; clip-rule:evenodd" xmlns:xlink="http://www.w3.org/1999/xlink">
<g><path style="opacity:1" fill="#f9f9f9" d="M -0.5,-0.5 C 439.5,-0.5 879.5,-0.5 1319.5,-0.5C 1319.5,332.833 1319.5,666.167 1319.5,999.5C 879.5,999.5 439.5,999.5 -0.5,999.5C -0.5,666.167 -0.5,332.833 -0.5,-0.5 Z"/></g>
<g><path style="opacity:1" fill="#fac838" d="M 213.5,382.5 C 307.834,382.333 402.167,382.5 496.5,383C 503.909,385.408 509.076,390.242 512,397.5C 512.667,465.167 512.667,532.833 512,600.5C 509.5,608.333 504.333,613.5 496.5,616C 402.167,616.667 307.833,616.667 213.5,616C 205.572,613.073 200.406,607.573 198,599.5C 197.333,532.833 197.333,466.167 198,399.5C 200.596,391.408 205.762,385.741 213.5,382.5 Z"/></g>
<g><path style="opacity:1" fill="#faf8f5" d="M 304.5,427.5 C 329.349,425.267 350.349,433.101 367.5,451C 351.458,466.707 335.792,482.707 320.5,499C 335.792,515.293 351.458,531.293 367.5,547C 344.564,570.442 317.564,576.442 286.5,565C 255.874,549.581 241.374,524.748 243,490.5C 247.554,464.224 261.721,445.058 285.5,433C 291.817,430.675 298.15,428.842 304.5,427.5 Z"/></g>
<g><path style="opacity:1" fill="#525252" d="M 626.5,477.5 C 647.5,477.5 668.5,477.5 689.5,477.5C 689.5,498.833 689.5,520.167 689.5,541.5C 668.376,567.709 641.376,576.875 608.5,569C 571.745,553.864 555.245,526.364 559,486.5C 567.137,454.013 587.637,434.513 620.5,428C 646.15,425.267 667.484,433.433 684.5,452.5C 679.542,457.324 674.542,462.158 669.5,467C 668.391,467.638 667.225,468.138 666,468.5C 658.613,461.723 650.113,456.889 640.5,454C 612.866,450.896 594.366,462.396 585,488.5C 581.219,517.457 593.052,536.624 620.5,546C 637.352,548.811 651.852,544.311 664,532.5C 664.5,522.839 664.666,513.172 664.5,503.5C 651.833,503.5 639.167,503.5 626.5,503.5C 626.5,494.833 626.5,486.167 626.5,477.5 Z"/></g>
<g><path style="opacity:1" fill="#888888" d="M 810.5,456.5 C 810.167,456.5 809.833,456.5 809.5,456.5C 809.5,448.5 809.5,440.5 809.5,432.5C 779.5,432.5 749.5,432.5 719.5,432.5C 719.5,478.167 719.5,523.833 719.5,569.5C 749.167,569.5 778.833,569.5 808.5,569.5C 778.671,570.498 748.671,570.831 718.5,570.5C 718.5,524.167 718.5,477.833 718.5,431.5C 749.167,431.5 779.833,431.5 810.5,431.5C 810.5,439.833 810.5,448.167 810.5,456.5 Z"/></g>
<g><path style="opacity:1" fill="#a1a1a1" d="M 922.5,569.5 C 930.833,569.5 939.167,569.5 947.5,569.5C 947.5,523.833 947.5,478.167 947.5,432.5C 939.167,432.5 930.833,432.5 922.5,432.5C 922.667,462.502 922.5,492.502 922,522.5C 921.283,521.956 920.783,521.289 920.5,520.5C 921.498,491.005 921.831,461.338 921.5,431.5C 930.5,431.5 939.5,431.5 948.5,431.5C 948.5,477.833 948.5,524.167 948.5,570.5C 939.651,570.826 930.984,570.493 922.5,569.5 Z"/></g>
<g><path style="opacity:1" fill="#7c7d7c" d="M 1050.5,431.5 C 1050.5,431.833 1050.5,432.167 1050.5,432.5C 1042.17,432.5 1033.83,432.5 1025.5,432.5C 1025.5,478.167 1025.5,523.833 1025.5,569.5C 1057.5,569.5 1089.5,569.5 1121.5,569.5C 1089.34,570.498 1057,570.832 1024.5,570.5C 1024.5,524.167 1024.5,477.833 1024.5,431.5C 1033.17,431.5 1041.83,431.5 1050.5,431.5 Z"/></g>
<g><path style="opacity:1" fill="#505150" d="M 809.5,456.5 C 787.833,456.5 766.167,456.5 744.5,456.5C 744.175,463.687 744.509,470.687 745.5,477.5C 764.167,477.5 782.833,477.5 801.5,477.5C 801.5,485.833 801.5,494.167 801.5,502.5C 782.5,502.5 763.5,502.5 744.5,502.5C 744.171,516.677 744.504,530.677 745.5,544.5C 766.5,544.5 787.5,544.5 808.5,544.5C 808.5,552.833 808.5,561.167 808.5,569.5C 778.833,569.5 749.167,569.5 719.5,569.5C 719.5,523.833 719.5,478.167 719.5,432.5C 749.5,432.5 779.5,432.5 809.5,432.5C 809.5,440.5 809.5,448.5 809.5,456.5 Z"/></g>
<g><path style="opacity:1" fill="#515151" d="M 920.5,520.5 C 920.783,521.289 921.283,521.956 922,522.5C 922.5,492.502 922.667,462.502 922.5,432.5C 930.833,432.5 939.167,432.5 947.5,432.5C 947.5,478.167 947.5,523.833 947.5,569.5C 939.167,569.5 930.833,569.5 922.5,569.5C 902.163,539.654 881.997,509.654 862,479.5C 861.5,509.832 861.333,540.165 861.5,570.5C 852.833,570.5 844.167,570.5 835.5,570.5C 835.5,524.167 835.5,477.833 835.5,431.5C 844.192,431.169 852.859,431.502 861.5,432.5C 881.177,461.862 900.843,491.195 920.5,520.5 Z"/></g>
<g><path style="opacity:1" fill="#505150" d="M 1050.5,432.5 C 1050.5,470.167 1050.5,507.833 1050.5,545.5C 1074.17,545.5 1097.83,545.5 1121.5,545.5C 1121.5,553.5 1121.5,561.5 1121.5,569.5C 1089.5,569.5 1057.5,569.5 1025.5,569.5C 1025.5,523.833 1025.5,478.167 1025.5,432.5C 1033.83,432.5 1042.17,432.5 1050.5,432.5 Z"/></g>
<g><path style="opacity:1" fill="#fac83a" d="M 313.5,434.5 C 330.198,434.786 344.865,440.286 357.5,451C 341.5,467 325.5,483 309.5,499C 325.5,515 341.5,531 357.5,547C 348.404,555.213 337.738,560.213 325.5,562C 290.263,565.481 266.096,550.981 253,518.5C 244.676,481.988 257.176,455.488 290.5,439C 298.086,436.368 305.753,434.868 313.5,434.5 Z"/></g>
<g><path style="opacity:1" fill="#9f9f9f" d="M 809.5,456.5 C 809.833,456.5 810.167,456.5 810.5,456.5C 789.006,457.497 767.34,457.831 745.5,457.5C 745.5,463.833 745.5,470.167 745.5,476.5C 745.5,476.833 745.5,477.167 745.5,477.5C 744.509,470.687 744.175,463.687 744.5,456.5C 766.167,456.5 787.833,456.5 809.5,456.5 Z"/></g>
<g><path style="opacity:1" fill="#c4c4c4" d="M 745.5,477.5 C 745.5,477.167 745.5,476.833 745.5,476.5C 764.5,476.5 783.5,476.5 802.5,476.5C 802.827,485.682 802.493,494.682 801.5,503.5C 801.5,503.167 801.5,502.833 801.5,502.5C 801.5,494.167 801.5,485.833 801.5,477.5C 782.833,477.5 764.167,477.5 745.5,477.5 Z"/></g>
<g><path style="opacity:1" fill="#b4b4b4" d="M 626.5,477.5 C 647.66,476.503 668.993,476.169 690.5,476.5C 690.831,498.34 690.497,520.006 689.5,541.5C 689.5,520.167 689.5,498.833 689.5,477.5C 668.5,477.5 647.5,477.5 626.5,477.5 Z"/></g>
<g><path style="opacity:1" fill="#faf8f3" d="M 389.5,481.5 C 401.378,481.259 408.378,486.926 410.5,498.5C 409.633,509.033 403.967,515.033 393.5,516.5C 380.403,514.241 374.903,506.575 377,493.5C 379.744,487.921 383.911,483.921 389.5,481.5 Z"/></g>
<g><path style="opacity:1" fill="#faf8f2" d="M 447.5,481.5 C 464.958,483.106 470.791,492.106 465,508.5C 458.255,517.153 450.088,518.653 440.5,513C 429.7,499.569 432.033,489.069 447.5,481.5 Z"/></g>
<g><path style="opacity:1" fill="#fac940" d="M 388.5,489.5 C 399.569,487.937 404.069,492.603 402,503.5C 399.058,508.153 394.891,509.653 389.5,508C 383.516,504.637 382.016,499.803 385,493.5C 386.376,492.295 387.542,490.962 388.5,489.5 Z"/></g>
<g><path style="opacity:1" fill="#fac93f" d="M 446.5,489.5 C 456.046,488.224 460.546,492.224 460,501.5C 458.154,507.995 453.988,510.162 447.5,508C 441.828,505.232 439.994,500.732 442,494.5C 443.059,492.341 444.559,490.674 446.5,489.5 Z"/></g>
<g><path style="opacity:1" fill="#7c7d7c" d="M 801.5,502.5 C 801.5,502.833 801.5,503.167 801.5,503.5C 782.833,503.5 764.167,503.5 745.5,503.5C 745.5,517.167 745.5,530.833 745.5,544.5C 744.504,530.677 744.171,516.677 744.5,502.5C 763.5,502.5 782.5,502.5 801.5,502.5 Z"/></g>
<g><path style="opacity:1" fill="#8d8d8d" d="M 1050.5,431.5 C 1051.5,468.996 1051.83,506.663 1051.5,544.5C 1075.01,544.169 1098.34,544.502 1121.5,545.5C 1097.83,545.5 1074.17,545.5 1050.5,545.5C 1050.5,507.833 1050.5,470.167 1050.5,432.5C 1050.5,432.167 1050.5,431.833 1050.5,431.5 Z"/></g>
</svg>
